<svg id="Слой_1" data-name="Слой 1" xmlns="http://www.w3.org/2000/svg" viewBox="0 0 838.24 236.49"><defs><style>.cls-1{fill:red;}</style></defs><path class="cls-1" d="M371,314.67q0,9.36,0,18.73-12.37.53-24.73,1.1l0-20.28c0-19.92-8.3-31.84-27.36-31.6-18.72.23-27.42,12.87-27.44,33.6l-.09,121.53c0,20.75,8.62,31.91,27.27,29.29,19-2.62,27.35-15.66,27.39-35.59l.09-44.36q-12,1-24,2l0-22.52q24.38-1.71,48.76-3.18l-.15,64.31c-.07,33-16.83,56.79-52.79,62.37-35.6,5.66-52.18-14.67-52.19-50.35V318.6c0-35.62,16.72-59.06,52.52-58.87C354.37,259.89,371,281.7,371,314.67Z" transform="translate(-265.72 -259.73)"/><path class="cls-1" d="M393.69,314c.09-33.1,17.87-54.37,53.66-54.24,36.13.1,53.8,20.32,53.72,51.64q-.13,53.11-.28,106.22c-.08,31.08-17.9,52.73-54,56.33-35.8,3.69-53.42-15.56-53.34-48.39Q393.54,369.75,393.69,314Zm25.45,110.54c-.06,19.5,8.93,29.81,27.67,28.11,19.07-1.7,27.81-13.29,27.86-32.25l.3-109.66c.06-18.65-8.61-29.84-27.68-29.68-18.73.15-27.79,11.81-27.84,31Q419.29,368.27,419.14,424.51Z" transform="translate(-265.72 -259.73)"/><path class="cls-1" d="M552,261.75q-.21,101.07-.43,202.14-13.08.71-26.16,1.55l.5-203.67Z" transform="translate(-265.72 -259.73)"/><path class="cls-1" d="M612.67,461.34q.11-89.68.23-179.37-21.58.07-43.17.18,0-10.2,0-20.41l112.4,0v20.15q-21.58,0-43.17,0l-.15,178.81Q625.76,461,612.67,461.34Z" transform="translate(-265.72 -259.73)"/><path class="cls-1" d="M780.33,355.07l0,20.32q-27-.6-54-.86,0,43.05.07,86.1-13.1-.22-26.19-.3,0-99.31,0-198.61l93,0q0,10.18,0,20.38-33.46-.17-66.93-.23l.06,72.47Q753.36,354.57,780.33,355.07Z" transform="translate(-265.72 -259.73)"/><path class="cls-1" d="M814.39,463.69q-.21-101-.43-201.94h26.09q.23,91.41.44,182.81,33.53,1.92,67,4.65l.06,21.15Q861,466.16,814.39,463.69Z" transform="translate(-265.72 -259.73)"/><path class="cls-1" d="M952.78,261.86q.29,106.56.58,213.11-13-1.44-26.08-2.72l-.6-210.42Z" transform="translate(-265.72 -259.73)"/><path class="cls-1" d="M1038,389.21q-19.44,46.65-38.84,91.21-12.35-1.59-24.71-3.05,23.4-52.77,46.82-108.18-22.14-55.11-44.36-107.3l27.09,0q18.16,43.86,36.27,89.7,18.13-43.74,36.31-89.59l24.42,0q-21.9,56.54-43.68,109.69,23.45,60.18,46.69,124.46-13.61-2.36-27.24-4.55Q1057.38,439,1038,389.21Z" transform="translate(-265.72 -259.73)"/></svg>